<svg id="Layer_1" data-name="Layer 1" xmlns="http://www.w3.org/2000/svg" viewBox="0 0 356.55 398.7"><defs><style>.cls-1{fill:#fff;}</style></defs><title>logo</title><path class="cls-1" d="M774.58,323.55c7,.19,12.46-4,19.54-7.67-4.68,11.67-12.2,19.18-21.56,25.17s-19.69,8.25-30.35,10.15c7.46,2.25,14.62,0,21.89-1.5-3.26,11.44-22.18,19.28-46.36,19,4.35,3.52,9,2.7,13.42,3.49-5.64,4.45-12.39,5.39-19.11,6.7-7.06,1.38-13.36-1.08-20.42-3.76,2.27,4.06,6.21,3.91,9.14,6.41-7.53,3.35-14.64,3.72-21.9.71-.46-.5-1.17-1-1.62-.47-.56.73.45.94.9,1.28,4.29,4.12,4.28,4.12-.58,7.44-2.19,1.5-4.37,3-6.54,4.56-7.42,5.26-8,7.19-4.45,15.83,4.32,10.55,12.18,18.55,19.62,26.81,7.23,8,14.78,15.79,20.6,24.95s10.07,18.56,6.62,29.59c-1.86,5.94-5,11.18-10.82,14.28l0,0c7-17.5-3.46-29.31-13.55-41.2-8.35-9.86-17.75-18.83-24.92-29.67-1.82-2.76-3.43-5.66-5.14-8.5l-1-2.09c-1.15,1-.39,1.9.08,2.83,2.23,11.93,7.77,22.54,13.35,33.11,3.65,6.9,7.59,13.64,10.69,20.83a56.77,56.77,0,0,1,4,13.83c2.51,16.22-10.36,31.41-26.7,31.54,0-.17,0-.42,0-.49,15.7-11.93,14.34-26.46,7.55-39.82-3.75-7.39-7.47-14.79-12.27-21.58-.24-.41,0-1.23-.92-1.07l.32,1.6c3,16.46,1.44,32.71-1.4,49.05-1.61,9.24,0,18.48,3.46,27.39-10.71-6.8-16.2-16.83-18.56-28.76-3-15.23-2.08-30.44.67-45.61a7.94,7.94,0,0,0-.1-3.58c-7.12,12.53-16.06,24.28-17.46,39.24-.7,7.5,2.77,13.88,7.7,19.42,1.18,1.33,2.42,2.62,3.88,4.2-18.8-2.57-29.24-17.53-25.25-35.56,3-13.39,10.41-24.77,16.65-36.68,4.78-9.12,9.15-18.36,10.64-28.77-8.89,17.49-24,29.89-35.88,44.92-2.15,2.74-4,5.72-5.91,8.65a27.86,27.86,0,0,0-3,25.72l-.16.15c-9.37-5.3-13.75-19-9.68-30.77,4-11.62,11.92-20.68,19.88-29.68,7.5-8.47,15.65-16.39,21.91-25.9a40.67,40.67,0,0,0,5.52-12.22c1.18-4.52,0-7.75-3.9-10.26-3.48-2.27-6.72-4.95-10.31-7-3.25-1.88-4.47-3.36-.41-5.57a6.61,6.61,0,0,0,1.38-1.41c.14-.33.29-.65.43-1l-1.09.3c-7.18,2.85-14.19,2-22.05-.59,2.54-1.52,4.19-2.52,5.84-3.52l1.3-1.14c-.8-.75-1.41-.18-2,.29-12.47,3.67-24.1,1.22-35.39-4.83,4.14-1.19,8.89.17,13.08-3.87-19.62,2.43-35.35-2.94-47.08-18.46,7.7,1.31,15.28,2.7,23.12,1-10.82-1.8-21.53-3.91-30.87-10-9.13-6-16.8-13.21-21-24.79,6.56,3.33,11.78,7,18.26,7.54.44.56,1.31.93,1.54.37.33-.81-.72-.58-1.19-.76-6.3-4-12.91-7.49-18.71-12.31-11.84-9.82-18.8-22.16-20.17-37.8,11.14,13.11,23.91,23.8,40.47,29.1-2.34-3-5.87-4.15-9-5.95a93.7,93.7,0,0,1-32.73-32.32c-8.46-13.68-10-28.7-8-44.3,3.87-30.66,17.77-55.45,43.08-73.54,1.33-.95,2.8-1.7,4.14-2.5,1.24,1,.67,2,.36,2.86-10.78,29.9-4,56.59,14.8,81.1a138.22,138.22,0,0,0,38.33,33.89c10,6.08,19.85,12.31,24.68,23.87a53,53,0,0,1,4,16.91c.33,4.81,2.14,3.91,5.17,2.38,9.29-4.7,13.86-13.12,17.84-22.05.23-.53.33-1.67.13-1.77-5.45-2.58-.35-4.11.83-5,5.89-4.39,9.42-10.28,11.69-17,3-8.82,0-14.12-8.89-16.33-2.33-.57-4.79-.74-7.37-2.5,2.91-1.49,5.47-.49,8.68-1.38-4.57-1.34-8.24-1.92-11.86.41-.94.59-1.78,1.91-3,.94-1-.79-.68-2.17-.56-3.31.39-3.77,2.59-6.37,6.16-7,6.13-1,11.37-3.44,16.74-6.68,6.34-3.83,13.9-2.38,21-.85,8.11,1.75,16.17,4,25.21.39-2.15,6.18-5.65,9.92-10.58,12.26-2.2,1-3,1.9-2,4.45a66.23,66.23,0,0,1,4.4,25.93c-.07,4.2,1,8.24,2.08,12.26.24.89,1.3,2.43.25,2.63-6.73,1.24-1.62,4.92-1,6.59,3.13,8.25,9.1,14.18,16.86,18.35,2.32,1.25,3.76,1.89,3.9-1.87.63-16.66,8.55-29.08,22.59-37.73,13.51-8.32,26.55-17.2,37.29-29.09,17.47-19.35,28.9-41,27.12-68-.55-8.36-3.13-16.24-6-24.78,5.65,2,9.76,5.3,13.59,8.74,22.45,20.12,34.47,45.38,36,75.43,1.35,26.4-11.72,45.67-31.42,61.45-7.21,5.77-15.53,9.63-23.58,14-.48.33-1,.64-1.45,1,.78.75,1.43.24,2.09-.22,17.15-5.45,31-15.67,42.31-29.49.5-.62.94-1.28,1.57-2.14.8,9.36-5.21,24-13.16,32.38a81.19,81.19,0,0,1-21.5,16c-1.58.83-3.48,1.19-4.56,2.84l-1.29.3.41.47ZM644,230.35c-2.62-.64-4.76-4.44-7.83-1.14-.94,1-.64,2.14.42,3C639.61,234.71,641.68,232.18,644,230.35ZM523.58,304.2c-1.29-1.32-2.3-2.12-3.93-1.2A3,3,0,0,0,523.58,304.2Zm1.16.8c.25.18.43.41.63.43a2.12,2.12,0,0,0,.77-.23c-.16-.16-.29-.45-.47-.47S525.16,304.86,524.74,305Zm241.67.09-.37-.18,0,.29Z" transform="translate(-467.87 -143.65)"/></svg>