<svg id="Layer_1" data-name="Layer 1" xmlns="http://www.w3.org/2000/svg" viewBox="0 0 670.48 647.63"><defs><style>.cls-1{fill:#d1bda2;}</style></defs><title>right_logo</title><path class="cls-1" d="M945.48,621.93c-13.24-20.33-31.59-34.62-53.36-44.47S847,564,822.4,564c6.51-8.34,12.61-16.29,18.92-24.07.77-1,2.65-1.35,4-1.4,30.4-1.06,58.6,5,82.3,25.56a68.25,68.25,0,0,1,22,36.45c-10.75-17.61-25.14-31.08-44.09-39.47-18.73-8.31-38.36-9.49-58.51-7.19a148.89,148.89,0,0,1,65,21.35c20.49,12.6,33.27,31.64,43.61,53.2.77-15.8,11.75-25.81,20-37.47a74.68,74.68,0,0,0,9.63-19c5.12-15.18.1-27.8-11.8-37.89a62.22,62.22,0,0,0-10.91-7c15.63,22.52,15.55,44.52-1.71,67.54.69-4.66,1.19-8,1.68-11.25,3.6-24-3.91-43.44-23.15-58.58a306.51,306.51,0,0,1-28.94-25.25c-11.78-11.94-19.67-26.1-18.3-43.76.3-3.9,1.23-7.75,1.89-11.72-13.21,14.07-14.2,44.83,11.33,69.24a40.71,40.71,0,0,1-4.25-1.42c-36.69-17.59-41.73-55.58-25-83.31,4.51-7.45,10.92-13.78,16.66-20.46C898,402,903.59,396.3,905.16,388c2-10.39-1.53-18.69-10.71-24.12-11.93-7.07-24.62-5.86-37.33-2.76-3.33.82-6.48,2.41-10.75,4,1.2-2.86,1.7-5.39,3.14-7.15,2.94-3.57,5.81-8,9.75-9.77,7.82-3.54,11.75-9.84,16.12-16.54,7.71-11.79,19.71-16.93,33.32-18.56,11.55-1.39,23.17-2.22,34.67-3.88,9-1.29,17.43-4.28,25-10.94-.4,9.92-5.78,15.86-12.78,20.57-8.41,5.65-18.1,7.3-28,8.05-2,.15-4,0-7.36,0,33.9,18.57,38.61,45.81,26.71,78.4,1.28-18.75-2.55-35.68-17.41-49.29,1.21,6.77,2.62,12.89,3.35,19.08,1.63,14-3.27,26.46-9,38.86-3.77,8.26-8.12,16.68-9.65,25.47-3,17.15,5.5,30.93,17.44,42.05,9.69,9,20.91,16.4,31.25,24.76,10.74,8.67,21.84,17,31.7,26.61,15.36,14.94,17.82,37.8,2.56,54.84-5.77,6.43-12.14,12.32-18,18.65-5.32,5.71-10.52,11.56-15.45,17.61a17.27,17.27,0,0,0-3.32,8.9c4.73-3.94,9.15-8.34,14.24-11.72,20.29-13.44,43.14-19.87,67-23,20.24-2.62,40.5-2.61,60.62,1.71,8.32,1.78,10.15,3,16.31,12.69-41.8-8.09-83-8.41-123.41,5.69-8.48,3-16.36,7.66-24.52,11.56.27.62.55,1.23.82,1.85,2.58-1,5.17-2,7.75-3,31-12.33,63.3-15.46,96.17-13.08,16.21,1.18,32.35,3.95,48.34,7,3.83.72,6.93,5.3,10.37,8.11l-1,1.41c-8.42-1.55-16.82-3.31-25.28-4.62-39-6-77.91-6.78-116.44,3.46a95.82,95.82,0,0,0-14,5.23c-2.06.9-4.68,2.36-5.38,4.2-2.26,6-7.07,5.58-11.83,5.67a37,37,0,0,1-6.49-.19c-5.84-1-11.83-.71-15.37-7.66-1.68-3.31-6.58-5.43-10.45-7.11-18.79-8.13-38.73-12-58.87-14.76-24.57-3.33-49.14-3.74-73.53,1.66-5.31,1.18-10.56,2.63-16.17,3.36,7.65-6.68,11.89-16.68,24.58-17.79,44.64-3.89,87.69,1.41,128.84,19.61,4.76,2.1,9.08,5.22,13.46,7.79-7.23-10.83-38.94-27.8-68.87-34.9-25.86-6.14-52-7-79-3.78,4.87-5.24,9.62-10.6,14.7-15.63.91-.89,3.19-.48,4.85-.54,47-1.69,88.46,12.63,124.24,43.25C943.15,620.25,944.34,621.06,945.48,621.93ZM884.32,343.8c11,1.07,15.83-1.87,18.23-10.85C892.83,331.23,886.7,334.79,884.32,343.8Z" transform="translate(-625.74 -195.93)"/><path class="cls-1" d="M658.74,649.12l-9.54,1.33C609,556.66,613,406.82,720.36,296.59c114.81-117.87,299.67-132.67,431.25-42,137.7,94.87,174.09,263.07,121.81,395.12l-9.16-2.46c28.85-84,28.73-167-6.9-248.6-25.27-57.88-65.35-103.54-118.09-138.18-113.14-74.32-260.94-68.83-367.15,7.05-60.2,43-101,100.3-121.85,171.35C629.5,509.6,633.91,579.56,658.74,649.12Z" transform="translate(-625.74 -195.93)"/><path class="cls-1" d="M1094,255.58c8.49,25.54,2.39,49.17-12.58,71.21-9.45,13.9-23.4,22.45-37.38,31-8.8,5.35-17.78,10.48-26.13,16.47-13.83,9.91-20,24.85-25.14,40.38-4.44,13.51-10.1,26.42-19.73,37.18C963.65,462.31,952.45,468,938,464c-7.46-2-11.42-6.76-10.9-14.55.44-6.49,2-12.9,3.09-19.34l1.49.16c.71,2.64,1.28,5.33,2.15,7.91,2.44,7.22,7.94,10.17,15.26,8.18,10.06-2.74,16.59-9.95,21.05-18.66,3.82-7.46,7.32-15.48,8.89-23.64,4.21-22,15-38.69,33.86-51.23,25.66-17.05,48.79-37.19,64.66-64.18C1083.78,278,1088.63,266.51,1094,255.58Z" transform="translate(-625.74 -195.93)"/><path class="cls-1" d="M1005.34,416.33c5.58-20.95,19.06-34.71,37.92-43.85,20.54-10,39-22.89,54.66-39.55,4.95-5.28,8.71-11.68,12.85-17.67,1.88-2.72,3.37-5.7,5.53-8.46,1.26,8.84,1.2,17.58-1.12,26.18-7.6,28.2-26.57,46.15-52.52,57.55-6.67,2.93-13.76,4.93-20.59,7.52-6.37,2.42-12.83,4.69-18.91,7.71S1011.48,412.64,1005.34,416.33Z" transform="translate(-625.74 -195.93)"/><path class="cls-1" d="M1117.93,367.41c1.51,8.64-1.09,15.69-4.25,22.43-12.71,27-35,39.38-64,40.82-11.79.59-23.61.64-35.4,1.21-3.92.19-7.81,1.24-12.29,2a59.21,59.21,0,0,1,24.17-16.65c10.91-4,22.08-7.21,33.2-10.56C1082.55,399.65,1102.49,387.79,1117.93,367.41Z" transform="translate(-625.74 -195.93)"/><path class="cls-1" d="M789.1,744h-29a6.35,6.35,0,0,1,.11-1.47c7.27-1.77,7.31-7.49,7.31-13.24s0-11.57,0-17.68h-33c0,8.17-.31,16.11.21,24,.13,2,2.83,3.86,4.54,5.6a10.87,10.87,0,0,0,3,1.57c-.11.4-.23.79-.34,1.19H713.3c.78-1.22,1.05-2.12,1.44-2.17,6.19-.79,7-5.28,7.06-10.23q0-21-.06-42c0-5.3-.14-10.65-7.18-11.71-.22,0-.45-.48-.52-.78a5.69,5.69,0,0,1,.12-1.46h28.16c-1,1.09-1.52,2.3-2.28,2.45-4.31.87-5.6,3.94-5.69,7.69-.14,6.47,0,12.94,0,19.81H767.9c-.34-7.6-.52-15.32-1.2-23-.12-1.33-2.28-2.58-3.66-3.66a22,22,0,0,0-3.42-1.85l.38-1.32h27.56c-.31.77-.43,1.74-.78,1.84-6,1.63-6.48,6.31-6.46,11.39.06,12.49,0,25,0,37.47C780.35,737.37,780.38,737.37,789.1,744Z" transform="translate(-625.74 -195.93)"/><path class="cls-1" d="M682.8,711.69c8.9,10.76,9.81,26.81,25.57,31.61-6.86,5-18.32,2.94-23.31-4.41-3.71-5.47-6.54-11.56-9.48-17.52-3.5-7.11-3.37-7.18-11.67-6.39,0,6.9-.62,13.92.29,20.75.38,2.85,4,5.27,6.32,8.11h-26.7c.19-.63.24-1.42.46-1.48,6.92-1.66,6.92-7,6.87-12.52-.12-12.49-.06-25,0-37.47,0-10.14,0-10.14-8-15.83,1.58-.56,2.64-1.27,3.7-1.25,11.14.16,22.28.26,33.41.78a25.88,25.88,0,0,1,9,2.57c5.95,2.7,9.51,7.52,9.4,14.11-.12,7.42-3.13,13.57-10.25,17C686.9,710.4,685.28,710.82,682.8,711.69Zm-19-2.32c7.58.34,14.7,1.11,18.84-6.1,3.2-5.57,3.53-11.7-.39-17-4.71-6.36-11.76-5.57-18.45-5.19Z" transform="translate(-625.74 -195.93)"/><path class="cls-1" d="M1072.14,709.51c-.09,22.19-15,36.59-37.8,36.52C1013,746,999.15,732,999.27,710.47s16.2-36.75,38.76-36.66C1059,673.89,1072.23,687.78,1072.14,709.51Zm-13.62,1.32.91-.4c-1.77-6.47-2.76-13.31-5.51-19.33-3.52-7.68-10.33-11.55-19-11.14-8.4.4-14.64,4.44-18,12.12-5.19,11.81-5.76,23.88-.08,35.68a21.06,21.06,0,0,0,22.51,12.16c8.86-1.2,15.68-7.68,17.72-17.26C1057.84,718.79,1058,714.78,1058.52,710.83Z" transform="translate(-625.74 -195.93)"/><path class="cls-1" d="M1082.08,743.84c.17-.9.17-1.19.24-1.21,8-2.27,7.63-8.72,7.58-15.09-.1-12.82-.06-25.63-.16-38.44,0-5-.3-9.9-6.78-11-.43-.07-.68-1.22-1.37-2.57,2.34-.11,4.07-.29,5.8-.26,11.46.22,23.06-.54,34.36,1,19.84,2.64,29.87,15.26,29.16,34.44a35.05,35.05,0,0,1-32.53,33.28c-11.27.74-22.61.42-33.92.53A9.6,9.6,0,0,1,1082.08,743.84Zm20.06-34.69h0c0,8.31-.15,16.63.13,24.93,0,1.7,1.61,4.75,2.63,4.81,15.17.92,28.8-2.26,31.7-20.4,3.87-24.09-6.31-38.18-30.06-37.53-3.49.1-4.59,1.33-4.5,4.75C1102.27,693.52,1102.14,701.33,1102.14,709.15Z" transform="translate(-625.74 -195.93)"/><path class="cls-1" d="M1083.08,813.55c0,6.38-.4,12.88.23,19.27.21,2.22,2.92,4.25,4.63,6.24.64.74,1.68,1.13,2.25,2.57H1063.5c0-.7,0-1.26.08-1.29,6.88-2.08,7.35-7.42,7.25-13.41-.2-12.82,0-25.65-.12-38.48,0-5,.32-10.35-6.51-11.69-.34-.07-.49-1.06-.69-1.5.38-.46.58-.91.78-.91q17.68.28,35.38.67a17,17,0,0,1,3.42.7c9.07,2.18,13.93,7.19,14.46,14.88.62,8.77-4,15.71-12.51,18.87-.61.23-1.23.43-2.2.78,3.13,5.91,6.21,11.71,9.29,17.5s6.46,11.59,14.63,13.09c-8.61,5.13-18.21,2.8-23.22-5.14a157.32,157.32,0,0,1-8.54-16.34C1091.57,812.19,1091.69,812.14,1083.08,813.55Zm.3-34.11v28.42c7.28.47,14.32,1,18.54-6.06,3.1-5.18,3.4-10.85,0-16.07C1097.56,778.94,1090.55,779.39,1083.38,779.44Z" transform="translate(-625.74 -195.93)"/><path class="cls-1" d="M935.14,813.3c0,6.47.14,12.61,0,18.74-.15,5.2,3.88,6.69,7.29,9.44H915.18c.73-.86,1.2-2,1.82-2.06,4.78-.73,5.73-4.3,5.74-8.09.07-15.31-.17-30.63-.11-46,0-5.19-2.51-8-8.45-8.79,1.58-1.33,2.23-2.36,2.87-2.35,12,.22,24-.1,35.87,1.12,7.76.8,14.73,4.48,16.32,13.69a17.56,17.56,0,0,1-10.34,19.53l-4.59,2.1c8.6,10,9.35,25.25,23.77,30.65a16.67,16.67,0,0,1-22.52-5.74,148.88,148.88,0,0,1-8.63-16.29C943.61,812.5,943.72,812.44,935.14,813.3Zm.35-33.8V808c7.17.14,14.14,1,18.29-6,3.32-5.55,3.64-11.64-.13-17C949.21,778.79,942.23,779.39,935.49,779.5Z" transform="translate(-625.74 -195.93)"/><path class="cls-1" d="M902.67,743.81H874.22l-.17-1a10.81,10.81,0,0,1,2.41-1.24c3.85-.93,5.48-3.43,5.48-7.25,0-16.16.07-32.33,0-48.49,0-3.56-1.28-6.5-5.32-7.39-.84-.19-1.54-1-2.67-1.74.86-.65,1.33-1.33,1.8-1.32,12.14.2,24.29.33,36.42.86,2.71.12,5.5,1.39,8,2.65,6.61,3.32,10.81,8.71,10.52,16.23s-3.86,14.27-11.36,16.73-15.71,3.44-24.4,5.22c0,5.85-.21,13,.18,20,.08,1.42,2.32,2.9,3.82,4,1.09.8,2.61,1,3.93,1.49Zm-8-62.81v22.53c0,1.16-.31,2.45.09,3.47.51,1.32,1.36,3.18,2.44,3.5A14.64,14.64,0,0,0,915.88,700c2.18-9.66-2.23-17.37-11.18-18.92C901.67,680.55,898.46,681,894.71,681Z" transform="translate(-625.74 -195.93)"/><path class="cls-1" d="M1197.19,744c11.88-6,12.83-18.38,17.13-28.37,5.11-11.9,9.1-24.28,13.48-36.5.93-2.61,2-4.06,5.25-4s4.8.9,6,3.93c6.09,15.84,12.37,31.61,18.62,47.39,2.69,6.76,3.74,14.84,13.54,16.12l-.64,1.28H1241.1c.09-.62,0-1.05.21-1.24,1.9-2,5.59-4.11,5.43-5.88-.43-4.67-2.43-9.22-4.09-13.71-.22-.62-2-.9-3.07-.92-5.83-.11-11.67-.32-17.48,0-1.63.1-3.41,1.78-4.64,3.16-.92,1-1.09,2.75-1.55,4.17-2.84,8.65-2.84,8.65,4,14.5Zm43.11-27.3c-3.4-8.73-6.64-17.07-10.32-26.51-3.36,9.56-6.29,17.9-9.31,26.51Z" transform="translate(-625.74 -195.93)"/><path class="cls-1" d="M900.61,774.79c.25,5.43.49,10.65.74,15.86l-1.27.76c-3.4-4.3-4.48-11.21-11.33-11.68-5.62-.39-11.26-.62-17.3-.94v26c8.39,1.12,16.44,1.21,22.89-6.46v19.27c-5.45-9.93-14.63-6.42-23-7.18v27.1c6.6-.59,13.29.1,18.89-2,5.3-2,9.45-7,15.11-11.53-1.2,6.22-2.29,11.87-3.43,17.8H852.54c.48-.81.68-1.64,1.07-1.75,4.71-1.31,5.29-5,5.3-9q0-22.23,0-44.48c0-4.7-.72-9-6.77-10.49l.91-1.22Z" transform="translate(-625.74 -195.93)"/><path class="cls-1" d="M866.72,743.87H838c2.41-2.37,6.07-4.38,6-6.22-.2-4.66-2-9.28-3.4-13.83a3.42,3.42,0,0,0-2.63-1.67c-6.66-.17-13.32-.18-20-.11-.81,0-2.17.6-2.35,1.2-1.45,4.74-3.17,9.49-3.7,14.36-.2,1.81,2.53,3.94,4.22,6.35H795.05c0-.67-.09-1.25,0-1.29,8.13-2.84,10.22-10.37,12.86-17.17,5.83-15,11.28-30.2,16.76-45.36,1.09-3,2-5.12,6-5.06,3.62.06,4.79,1.62,5.91,4.57,6.67,17.56,13.6,35,20.23,52.59,1.92,5.11,4.53,9.27,10.86,10.34Zm-29.34-27.18c-3.49-8.93-6.74-17.26-10.43-26.68-3.28,9.61-6.15,18-9.12,26.68Z" transform="translate(-625.74 -195.93)"/><path class="cls-1" d="M981.92,694.22c-.55-1.26-1.14-2.49-1.65-3.76-3.29-8.24-8.22-11.32-17.07-10.52-4.29.38-7.8,2.32-9.13,6.53A8.73,8.73,0,0,0,957.81,697a127.79,127.79,0,0,0,14.75,7.15c11.17,4.93,16.38,14.5,13.79,25.67a20.43,20.43,0,0,1-19.8,15.92c-5.86,0-11.74-1.59-17.57-2.67-2.31-.43-4.69-3.09-6.28,2.49l-1.05-1.7q-.85-9.76-1.69-19.54l1.6-.61a39,39,0,0,1,2.66,3.4c3.79,6,8.7,10.49,15.65,12.41,6.77,1.87,12.63-.48,15.3-6a12.4,12.4,0,0,0-4.9-15.73c-4.77-2.91-10.6-4.13-15.26-7.16-4.43-2.88-9.29-6.44-11.62-10.92-4.73-9.05.28-19.27,10.44-23.43a34.92,34.92,0,0,1,24.9-.59c1.07.36,2.8.92,2.92,1.61,1,5.48,1.61,11,2.36,16.52Z" transform="translate(-625.74 -195.93)"/><path class="cls-1" d="M1054.4,841.73h-26.91c-.06-.63-.24-1.09-.1-1.24,1.83-1.86,5.45-3.88,5.25-5.45-.6-4.83-2.53-9.53-4.27-14.16-.25-.65-2.35-.8-3.6-.82-5.5-.1-11,.14-16.48-.16-2.92-.15-4.27.87-4.94,3.54a47.81,47.81,0,0,1-1.74,4.67c-2.8,7.77-2.71,8.12,3.84,13.41H984c14.12-10.82,15.27-27.89,21.82-42.14,3.18-6.92,5.34-14.32,7.79-21.56.84-2.48,1.8-4,4.82-3.82,2.85.21,5.29,0,6.63,3.57,5.93,15.89,12.11,31.68,18.29,47.47,2.42,6.18,3.27,13.54,12,15.27C1055,840.78,1054.71,841.25,1054.4,841.73Zm-28.54-27.11c-3.51-9-6.74-17.23-10.26-26.21l-9,26.21Z" transform="translate(-625.74 -195.93)"/><path class="cls-1" d="M1168.81,840.8c9.69-3.32,10.85-12.41,13.88-20,5.68-14.18,10.8-28.58,16-43,.89-2.48,1.65-4,4.71-3.85s5.18.3,6.47,3.78c6,16,12.25,32,18.35,47.94,3.92,10.27,3.86,10.29,11.4,15.75h-28.14c1.19-1.08,1.73-1.85,2.47-2.17,3.19-1.37,3.75-3.72,3.24-6.92-1.82-11.4-2.91-12.41-14.3-12.42-1.49,0-3-.12-4.49,0-3,.3-7.78-.26-8.68,1.32a37.76,37.76,0,0,0-4.18,14.12c-.2,1.74,2.82,3.85,4.46,5.91-.35.21-.73.64-1.11.65-6.44,0-12.88,0-19.32,0Zm31.74-52.22c-3.15,9.21-6,17.45-8.83,25.86h18.68Z" transform="translate(-625.74 -195.93)"/><path class="cls-1" d="M990.46,453.31c12.82-8.83,28-11.59,44.48-9.81,13.53,1.47,27.18,3.37,40.62-.59,5.54-1.63,10.89-3.89,16.44-5.91-4.36,11.45-17.46,21.51-32,25-12.77,3.06-25,.33-37.39-2.61C1011.83,456.83,1000.85,455.24,990.46,453.31Z" transform="translate(-625.74 -195.93)"/><path class="cls-1" d="M824.66,841.67H800.12c6.9-3.42,5.59-9.6,5.62-15.2,0-13.65,0-27.31,0-41v-6.38c-5.1,1-10.13.89-13.64,3.13-3.33,2.12-5.05,6.75-7.48,10.28l-1.68-.66c.71-5.78,1.42-11.56,2.18-17.8,14.58,0,28.87,0,43.15,0,11.46,0,11.49,0,12.5,11.32.19,2.12,0,4.28,0,7.9-1.81-1.69-3.13-2.43-3.7-3.55-4.59-8.89-8.35-10.88-19-9.35v13.24c0,9.82-.15,19.65.07,29.47C818.35,829.82,816,837.64,824.66,841.67Z" transform="translate(-625.74 -195.93)"/><path class="cls-1" d="M1012.5,593.49c1.46-3.12,3.32-5.54,3.69-8.16,1.09-7.6,5.93-10.55,12.75-11.3q27.46-3,55-5.81a4.75,4.75,0,0,1,3.49,1.31c5.59,6.08,11,12.31,17.28,19.38C1073,583.33,1042.76,581.9,1012.5,593.49Z" transform="translate(-625.74 -195.93)"/><path class="cls-1" d="M703.79,837.61c6.4-.66,12.67,0,17.73-2.2,4.83-2.08,8.4-7.08,13.59-11.75-1.14,6.56-2.12,12.24-3.11,18H683.07c1.68-1.32,2.28-2.12,3-2.33,3.49-1,4.75-3.57,4.76-6.79,0-16.47.25-33-.28-49.42-.09-2.79-3.51-5.47-5.54-8.43h24.83c-8.78,4.57-6.68,11.65-6.74,18-.12,12.65,0,25.3.08,37.95C703.25,832.53,703.53,834.49,703.79,837.61Z" transform="translate(-625.74 -195.93)"/><path class="cls-1" d="M1161.4,675.72h27.26c-.15.82-.13,1.37-.29,1.42-7.38,2.7-6.65,8.91-6.61,14.92.08,12.82.12,25.65,0,38.47,0,5.23-.07,10.19,6.6,11.51.38.07.59,1,1.09,1.91h-28.21c.16-.93.16-1.49.27-1.51,7.2-1.6,7.79-6.83,7.68-13-.25-13.32-.16-26.65-.06-40,0-5.3-.16-10.2-6.9-11.28-.36-.06-.69-.67-.9-1.09C1161.22,676.9,1161.35,676.51,1161.4,675.72Z" transform="translate(-625.74 -195.93)"/><path class="cls-1" d="M974.73,468.9c11.09-5.18,22.7-5.08,34.5-1.17,9.91,3.27,19.74,6.92,29.84,9.46,5.62,1.41,11.72.89,18.15,1.27-13.13,11.56-27.86,13.49-43.5,8.6-7-2.2-13.49-6.28-20.23-9.45C987.23,474.66,980.94,471.78,974.73,468.9Z" transform="translate(-625.74 -195.93)"/><path class="cls-1" d="M746.25,774.59h23.08c-6.06,2.85-4.53,8.23-4.55,13-.06,13.47,0,27,0,40.42,0,5-1.14,10.56,5.2,13.61H746c0-.16-.16-.73-.09-.75,6.75-2.53,6.4-8.15,6.32-13.88-.17-11.81,0-23.62-.12-35.43C752,785.47,754.78,778.23,746.25,774.59Z" transform="translate(-625.74 -195.93)"/><path class="cls-1" d="M1162,841.69h-28.26c.79-1,1.15-1.94,1.69-2.07,5.46-1.26,6.19-5.44,6.19-10,0-14.32-.1-28.63,0-42.95,0-5.45-1.24-9.82-9-10.19.58-.6,1.16-1.19,1.75-1.78h26.54c-.31.62-.54,1.74-1,1.83-5.3,1.07-6.06,4.77-6,9.37.13,14.49.09,29,0,43.46,0,4.87-.09,9.61,6.48,10.32C1160.85,839.75,1161.18,840.59,1162,841.69Z" transform="translate(-625.74 -195.93)"/><path class="cls-1" d="M1021.24,560c-.22-11.67-3.78-19.45-16.83-35.65,3.79,1.7,6.48,2.59,8.84,4,17,10.24,34.82,18.09,55.1,18.86,1.75.07,3.46,1.31,5.18,2-.15.42-.3.83-.44,1.25Z" transform="translate(-625.74 -195.93)"/><path class="cls-1" d="M1009.75,499.12c-22.33,3.88-37.55-7.46-53-19.87,8.32-1,16.06-1.28,23.18,2.67C989.58,487.29,999.09,493,1009.75,499.12Z" transform="translate(-625.74 -195.93)"/></svg>